<?xml version="1.0" encoding="utf-8"?>
<!-- Generator: Adobe Illustrator 16.0.0, SVG Export Plug-In . SVG Version: 6.00 Build 0)  -->
<!DOCTYPE svg PUBLIC "-//W3C//DTD SVG 1.1//EN" "http://www.w3.org/Graphics/SVG/1.1/DTD/svg11.dtd">
<svg version="1.1" id="Calque_1" xmlns="http://www.w3.org/2000/svg" xmlns:xlink="http://www.w3.org/1999/xlink" x="0px" y="0px"
	 width="31.622px" height="31.622px" viewBox="0 0 31.622 31.622" enable-background="new 0 0 31.622 31.622" xml:space="preserve">
<g>
	<g>
		<path fill="#FFFFFF" d="M11.828,19.514c0,0-6.723-6.946-6.723-10.936c0-3.99,2.586-7.904,6.871-8.126s6.723,4.507,6.723,8.126
			C18.698,12.199,11.828,19.514,11.828,19.514z"/>
		<path fill="#FFFFFF" d="M11.828,19.957c-0.121,0-0.235-0.049-0.319-0.137c-0.28-0.289-6.847-7.122-6.847-11.242
			c0-3.971,2.556-8.324,7.292-8.569C12.057,0.003,12.162,0,12.265,0c4.487,0,6.877,4.981,6.877,8.578
			c0,3.752-6.706,10.936-6.991,11.238c-0.083,0.088-0.198,0.139-0.319,0.141C11.83,19.957,11.828,19.957,11.828,19.957z
			 M12.265,0.887c-0.087,0-0.177,0.003-0.267,0.007c-4.189,0.218-6.45,4.121-6.45,7.685c0,3.279,4.949,8.85,6.275,10.281
			c1.339-1.48,6.432-7.31,6.432-10.281C18.255,5.354,16.173,0.887,12.265,0.887z"/>
	</g>
	<g>
		<path fill="#FFFFFF" stroke="#FFFFFF" stroke-linejoin="round" stroke-miterlimit="10" d="M26.53,10.647
			c0-3.621-2.439-8.348-6.725-8.126c-0.361,0.019-0.707,0.073-1.047,0.142c1.127,1.849,1.713,4.043,1.713,5.915
			c0,2.543-2.332,6.074-4.407,8.715c1.755,2.383,3.595,4.289,3.595,4.289S26.53,14.268,26.53,10.647z"/>
	</g>
	<path fill="none" stroke="#FFFFFF" stroke-linecap="round" stroke-miterlimit="10" d="M11.865,20.768c0,0-0.277,1.746,1.607,3.381
		s1.523,3.24,0.388,4.654"/>
	<path fill="none" stroke="#FFFFFF" stroke-linecap="round" stroke-miterlimit="10" d="M19.649,22.791c0,0-0.277,1.744,1.607,3.379
		c1.883,1.635,1.523,3.242,0.387,4.654"/>
</g>
</svg>
