<?xml version="1.0" encoding="utf-8"?>
<!-- Generator: Adobe Illustrator 16.0.0, SVG Export Plug-In . SVG Version: 6.00 Build 0)  -->
<!DOCTYPE svg PUBLIC "-//W3C//DTD SVG 1.1//EN" "http://www.w3.org/Graphics/SVG/1.1/DTD/svg11.dtd">
<svg version="1.1" id="Calque_1" xmlns="http://www.w3.org/2000/svg" xmlns:xlink="http://www.w3.org/1999/xlink" x="0px" y="0px"
	 width="31.622px" height="31.622px" viewBox="0 0 31.622 31.622" enable-background="new 0 0 31.622 31.622" xml:space="preserve">
<g>
	<path fill="#FFFFFF" d="M14.066,30.164c1.885-3.193-0.559-6.76-4.373-5.867c0-5.249,0-10.479,0-15.821
		c-1.024,0-1.973-0.007-2.92,0.003C6.307,8.483,5.819,8.45,5.806,7.868C5.791,7.229,6.308,7.191,6.801,7.191
		c5.651,0.001,11.302-0.007,16.953,0.019c0.319,0.001,0.638,0.277,0.957,0.425c-0.151,0.278-0.315,0.55-0.45,0.836
		c-0.086,0.184-0.172,0.385-0.187,0.583c-0.443,6.179-0.878,12.357-1.316,18.537c-0.038,0.543-0.081,1.088-0.136,1.631
		c-0.101,0.988-0.833,1.703-1.809,1.621C18.591,30.656,16.375,30.4,14.066,30.164z"/>
	<path fill="#FFFFFF" d="M23.808,5.021c0.468,0,0.926-0.085,1.328,0.028c0.293,0.083,0.511,0.428,0.762,0.656
		c-0.264,0.204-0.524,0.58-0.793,0.585c-2.428,0.045-4.856,0.026-7.285,0.026c-2.564,0-5.13-0.002-7.694-0.001
		c-0.438,0-0.947,0.07-1.05-0.511C8.974,5.23,9.389,5.078,9.871,4.998c0.143-0.023,0.291-0.208,0.372-0.355
		c0.132-0.236,0.206-0.504,0.311-0.755c0.653-1.578,1.062-1.787,2.742-1.615c2.713,0.277,5.429,0.523,8.146,0.752
		C22.981,3.155,23.398,3.463,23.808,5.021z"/>
	<path fill="#FFFFFF" d="M11.028,30.738c-1.614,0.004-2.852-1.217-2.858-2.818c-0.007-1.596,1.238-2.883,2.802-2.898
		c1.619-0.016,2.918,1.264,2.922,2.881C13.897,29.471,12.624,30.732,11.028,30.738z M12.575,27.895
		c0.005-0.826-0.736-1.564-1.569-1.563c-0.803,0.004-1.501,0.695-1.521,1.508c-0.022,0.873,0.644,1.572,1.509,1.586
		C11.845,29.438,12.571,28.736,12.575,27.895z"/>
</g>
</svg>
