<?xml version="1.0" encoding="utf-8"?>
<!-- Generator: Adobe Illustrator 16.0.0, SVG Export Plug-In . SVG Version: 6.00 Build 0)  -->
<!DOCTYPE svg PUBLIC "-//W3C//DTD SVG 1.1//EN" "http://www.w3.org/Graphics/SVG/1.1/DTD/svg11.dtd">
<svg version="1.1" id="Calque_1" xmlns="http://www.w3.org/2000/svg" xmlns:xlink="http://www.w3.org/1999/xlink" x="0px" y="0px"
	 width="53.684px" height="31.622px" viewBox="0 0 53.684 31.622" enable-background="new 0 0 53.684 31.622" xml:space="preserve">
<g>
	<path fill="#FFFFFF" d="M50.306,12.618c0.287,2.033,0.57,4.043,0.857,6.051c0.152,1.061,0.326,2.119,0.473,3.18
		c0.148,1.051-0.49,1.836-1.553,1.873c-0.93,0.033-1.861,0.008-2.889,0.008c0-1.721,0-3.385,0-5.166
		c0.775,0,1.527-0.014,2.279,0.006c0.781,0.018,1.043-0.332,0.938-1.098c-0.281-2.021-0.535-4.045-0.773-6.072
		c-0.17-1.428-1.26-0.832-2.016-0.928c-0.83-0.107-0.947,0.434-0.943,1.111c0.014,3.635,0.006,7.27,0.006,10.904
		c0,0.371,0,0.744,0,1.18c-1.195,0-2.281,0-3.365,0c-0.242-2.525-1.18-3.6-3.031-3.506c-1.65,0.086-2.572,1.33-2.572,3.512
		c-4.65,0-9.303,0-14.066,0c0-2.807,0-5.559,0-8.379c-1.305,0-2.5,0-3.846,0c0,2.773,0,5.555,0,8.383c-1.45,0-2.751,0-4.142,0
		c0.043-1.137-0.054-2.285-1.104-2.93c-0.554-0.34-1.281-0.557-1.928-0.551c-1.58,0.012-2.426,1.225-2.529,3.463
		c-0.257,0.023-0.522,0.068-0.788,0.068c-2.25,0.006-4.5,0.012-6.75,0c-1.17-0.008-1.717-0.531-1.774-1.688
		c-0.175-3.525-0.348-7.051-0.501-10.576c-0.056-1.268,0.524-1.879,1.782-1.879c15.403-0.006,30.807,0,46.211-0.01
		c0.771,0,1.479,0.219,1.635,0.975c0.162,0.775,0.613,0.955,1.238,1.119c1.621,0.422,1.617,0.436,1.617,2.129
		c0,0.52,0.037,1.043-0.02,1.557c-0.023,0.219-0.242,0.418-0.373,0.625c-0.162-0.215-0.412-0.41-0.465-0.646
		c-0.078-0.365-0.021-0.758-0.021-1.139C51.892,12.808,51.892,12.808,50.306,12.618z M5.749,10.407c-0.83,0-1.661,0.016-2.491-0.006
		c-0.605-0.014-0.91,0.258-0.914,0.855c-0.007,0.865-0.074,1.74,0.038,2.59c0.041,0.311,0.509,0.793,0.801,0.807
		c1.691,0.076,3.389,0.039,5.084,0.037c0.606,0,0.865-0.322,0.857-0.916c-0.013-0.83-0.009-1.66-0.002-2.49
		c0.004-0.6-0.268-0.891-0.882-0.881C7.41,10.419,6.579,10.407,5.749,10.407z M42.669,10.407c-0.795,0-1.59,0.021-2.385-0.008
		c-0.686-0.023-1.043,0.223-1.021,0.951c0.021,0.795,0.023,1.592,0,2.385c-0.023,0.73,0.348,0.979,1.021,0.965
		c0.865-0.018,1.729,0.012,2.594-0.006c3.684-0.076,3.09,0.67,3.143-3.293c0.002-0.035-0.002-0.07,0-0.105
		c0.016-0.662-0.316-0.92-0.967-0.896C44.261,10.429,43.464,10.407,42.669,10.407z M35.332,10.407
		c-4.057,0.102-3.365-0.762-3.438,3.295c0,0.035,0.002,0.068,0.002,0.104c-0.006,0.594,0.273,0.893,0.881,0.891
		c1.656-0.008,3.314-0.006,4.971-0.002c0.59,0,0.898-0.26,0.891-0.873c-0.01-0.828-0.014-1.658,0.002-2.486
		c0.014-0.648-0.258-0.953-0.926-0.934C36.921,10.427,36.126,10.407,35.332,10.407z M27.904,10.407
		c-0.827,0-1.656,0.014-2.484-0.004c-0.596-0.014-0.907,0.225-0.9,0.846c0.01,0.863,0.015,1.725-0.001,2.588
		c-0.011,0.629,0.316,0.859,0.898,0.857c1.656-0.004,3.313-0.006,4.969,0c0.623,0.004,0.852-0.314,0.838-0.908
		c-0.018-0.828-0.023-1.656,0.002-2.484c0.02-0.676-0.291-0.924-0.941-0.9C29.492,10.427,28.699,10.407,27.904,10.407z
		 M20.557,10.407c-3.568,0-3.568,0-3.408,3.305c0.002,0.033,0.002,0.068,0.001,0.104c-0.027,0.609,0.272,0.883,0.874,0.881
		c1.657-0.008,3.314-0.006,4.972-0.004c0.595,0.002,0.895-0.279,0.891-0.883c-0.005-0.828-0.008-1.656,0.002-2.486
		c0.008-0.65-0.292-0.939-0.949-0.922C22.146,10.425,21.351,10.407,20.557,10.407z M13.092,10.407c-0.794,0-1.589,0.02-2.383-0.006
		c-0.638-0.02-0.979,0.209-0.963,0.893c0.019,0.828,0.021,1.656-0.001,2.484c-0.018,0.678,0.322,0.922,0.953,0.918
		c1.623-0.008,3.246-0.01,4.869,0.002c0.664,0.004,0.932-0.322,0.921-0.957c-0.012-0.795-0.018-1.59,0.002-2.383
		c0.018-0.719-0.321-0.986-1.016-0.959C14.682,10.431,13.886,10.407,13.092,10.407z"/>
	<path fill="#FFFFFF" d="M23.158,23.696c-1.006,0-1.898,0-2.87,0c0-2.668,0-5.299,0-7.967c0.981,0,1.896,0,2.87,0
		C23.158,18.39,23.158,20.993,23.158,23.696z"/>
	<path fill="#FFFFFF" d="M10.558,22.95c-0.009-1.371,1.054-2.432,2.42-2.414c1.287,0.016,2.351,1.123,2.325,2.42
		c-0.025,1.301-1.09,2.348-2.397,2.357C11.586,25.323,10.565,24.296,10.558,22.95z"/>
	<path fill="#FFFFFF" d="M40.46,20.575c1.338-0.014,2.352,0.988,2.363,2.334s-0.992,2.389-2.311,2.402
		c-1.307,0.016-2.369-1.029-2.387-2.348C38.107,21.646,39.14,20.589,40.46,20.575z"/>
</g>
</svg>
