<?xml version="1.0" encoding="utf-8"?>
<!-- Generator: Adobe Illustrator 16.0.0, SVG Export Plug-In . SVG Version: 6.00 Build 0)  -->
<!DOCTYPE svg PUBLIC "-//W3C//DTD SVG 1.1//EN" "http://www.w3.org/Graphics/SVG/1.1/DTD/svg11.dtd">
<svg version="1.1" id="Calque_1" xmlns="http://www.w3.org/2000/svg" xmlns:xlink="http://www.w3.org/1999/xlink" x="0px" y="0px"
	 width="31.622px" height="31.622px" viewBox="0 0 31.622 31.622" enable-background="new 0 0 31.622 31.622" xml:space="preserve">
<g>
	<g>
		<path fill="#FFFFFF" d="M26.988,10.505h0.171L25.88,5.559c-0.342-1.45-1.876-2.303-3.241-1.877L3.701,8.714
			c-1.448,0.34-2.302,1.876-1.876,3.241l1.622,6.142v-3.668c0-2.216,1.79-4.007,4.009-4.007h19.532V10.505z M26.988,10.505"/>
	</g>
	<path fill="#FFFFFF" d="M26.988,11.87H7.37c-1.45,0-2.645,1.194-2.645,2.644v12.454c0,1.45,1.194,2.644,2.645,2.644h19.618
		c1.45,0,2.644-1.195,2.644-2.644V14.514C29.634,13.063,28.438,11.87,26.988,11.87L26.988,11.87z M27.842,26.968
		c0,0.511-0.426,0.854-0.852,0.854H7.37c-0.512,0-0.852-0.428-0.852-0.854v-3.155h21.408v3.155H27.842z M27.842,17.669H6.519v-3.155
		c0-0.511,0.426-0.852,0.852-0.852h19.618c0.514,0,0.854,0.425,0.854,0.852V17.669z M27.842,17.669"/>
</g>
</svg>
