<?xml version="1.0" encoding="utf-8"?>
<!-- Generator: Adobe Illustrator 16.0.0, SVG Export Plug-In . SVG Version: 6.00 Build 0)  -->
<!DOCTYPE svg PUBLIC "-//W3C//DTD SVG 1.1//EN" "http://www.w3.org/Graphics/SVG/1.1/DTD/svg11.dtd">
<svg version="1.1" id="Calque_1" xmlns="http://www.w3.org/2000/svg" xmlns:xlink="http://www.w3.org/1999/xlink" x="0px" y="0px"
	 width="31.622px" height="31.622px" viewBox="0 0 31.622 31.622" enable-background="new 0 0 31.622 31.622" xml:space="preserve">
<g>
	<g>
		<path fill="#FFFFFF" d="M31.136,13.894l-1.492-2.13c-0.008,0.006-0.018,0.013-0.025,0.019c-1.689,1.184-4.018,0.773-5.201-0.916
			c-1.184-1.689-0.773-4.018,0.916-5.201c0.01-0.006,0.02-0.012,0.027-0.019l-1.49-2.13c-0.361-0.513-1.068-0.637-1.582-0.278
			l-5.901,4.134l1.292,1.844l-1.4,0.98l-1.292-1.844L0.764,18.318c-0.514,0.359-0.639,1.066-0.278,1.58l7.269,10.375
			c0.358,0.514,1.066,0.639,1.578,0.279l14.223-9.965l-1.275-1.82l1.4-0.98l1.275,1.82l5.902-4.133
			C31.37,15.114,31.495,14.407,31.136,13.894L31.136,13.894z M17.274,11.553l1.4-0.98l1.676,2.393l-1.4,0.98L17.274,11.553z
			 M21.378,17.479l-1.547-2.208l1.4-0.98l1.547,2.207L21.378,17.479z M21.378,17.479"/>
	</g>
</g>
</svg>
