<?xml version="1.0" encoding="utf-8"?>
<!-- Generator: Adobe Illustrator 16.0.0, SVG Export Plug-In . SVG Version: 6.00 Build 0)  -->
<!DOCTYPE svg PUBLIC "-//W3C//DTD SVG 1.1//EN" "http://www.w3.org/Graphics/SVG/1.1/DTD/svg11.dtd">
<svg version="1.1" id="Calque_1" xmlns="http://www.w3.org/2000/svg" xmlns:xlink="http://www.w3.org/1999/xlink" x="0px" y="0px"
	 width="31.622px" height="31.622px" viewBox="0 0 31.622 31.622" enable-background="new 0 0 31.622 31.622" xml:space="preserve">
<g>
	<path fill="#FFFFFF" d="M31.225,10.331c-0.069,2.119-0.162,3.712-0.165,5.306c-0.006,2.498,0.048,4.996,0.076,7.493
		c0.002,0.146,0.01,0.292,0.005,0.436c-0.026,0.677-0.297,0.904-0.968,0.821c-0.527-0.066-0.707-0.288-0.684-0.872
		c0.064-1.622,0.14-3.243,0.2-4.864c0.029-0.788,0.082-1.581,0.041-2.365c-0.051-0.943-0.218-1.878-0.285-2.82
		c-0.161-2.214-0.044-4.417,0.42-6.589c0.084-0.393,0.343-0.764,0.584-1.101c0.089-0.125,0.39-0.208,0.532-0.152
		c0.126,0.05,0.23,0.318,0.233,0.491C31.232,7.694,31.225,9.274,31.225,10.331z"/>
	<path fill="#FFFFFF" d="M1.082,9.937c0.068-1.367,0.134-2.733,0.202-4.1c0.03,0,0.059,0,0.089,0
		c0.053,1.355,0.106,2.711,0.159,4.067C1.595,9.907,1.66,9.911,1.725,9.915c0.016-0.444,0.032-0.887,0.048-1.332
		c0.018-0.486,0.042-0.972,0.051-1.458c0.008-0.469,0.001-0.938,0.001-1.408c0.039-0.001,0.076-0.002,0.115-0.002
		C2.018,7.121,2.094,8.528,2.17,9.936c0.059,0,0.117-0.001,0.176-0.001c0-1.392,0-2.784,0-4.176c0.046,0,0.091-0.001,0.136-0.002
		c0.214,1.651,0.495,3.302,0.343,4.972c-0.039,0.414-0.346,0.828-0.604,1.188c-0.227,0.316-0.325,0.589-0.279,0.995
		c0.086,0.779,0.06,1.569,0.09,2.355c0.095,2.4,0.192,4.8,0.293,7.2c0.016,0.391,0.118,0.785,0.069,1.165
		C2.319,24.221,1.972,24.466,1.47,24.4c-0.436-0.058-0.828-0.594-0.792-1.073c0.09-1.194,0.195-2.388,0.26-3.583
		c0.101-1.852,0.174-3.705,0.262-5.559c0.023-0.495,0.1-0.993,0.073-1.486c-0.015-0.264-0.144-0.566-0.317-0.769
		c-0.378-0.44-0.583-0.92-0.558-1.495c0.065-1.562,0.136-3.123,0.204-4.684c0.073,0,0.146,0,0.219,0c0,1.388,0,2.775,0,4.163
		C0.907,9.923,0.995,9.93,1.082,9.937z"/>
	<circle fill="#FFFFFF" cx="16.034" cy="15.497" r="7.524"/>
	<circle fill="none" stroke="#FFFFFF" stroke-miterlimit="10" cx="16.034" cy="15.063" r="10.924"/>
</g>
</svg>
