<?xml version="1.0" encoding="utf-8"?>
<!-- Generator: Adobe Illustrator 16.0.0, SVG Export Plug-In . SVG Version: 6.00 Build 0)  -->
<!DOCTYPE svg PUBLIC "-//W3C//DTD SVG 1.1//EN" "http://www.w3.org/Graphics/SVG/1.1/DTD/svg11.dtd">
<svg version="1.1" id="Calque_1" xmlns="http://www.w3.org/2000/svg" xmlns:xlink="http://www.w3.org/1999/xlink" x="0px" y="0px"
	 width="31.622px" height="31.622px" viewBox="0 0 31.622 31.622" enable-background="new 0 0 31.622 31.622" xml:space="preserve">
<g>
	<path fill="#FFFFFF" d="M29.783,10.974h-1.382l0.034-0.175c0-2.611-2.125-4.733-4.733-4.733c-0.808,0-1.56,0.223-2.225,0.583
		c-0.664-0.36-1.416-0.583-2.226-0.583c-2.606,0-4.732,2.122-4.732,4.733v0.175H2.189c-0.242,0-0.442,0.199-0.442,0.443v15.02
		c0,0.249,0.2,0.447,0.442,0.447h27.594c0.248,0,0.448-0.198,0.448-0.447v-15.02C30.231,11.173,30.031,10.974,29.783,10.974
		L29.783,10.974z M23.702,7.402c1.874,0,3.399,1.525,3.399,3.397l0.034,0.175h-3.185l0.034-0.175c0-1.251-0.5-2.381-1.291-3.224
		C23.017,7.471,23.352,7.402,23.702,7.402L23.702,7.402z M19.252,7.402c0.354,0,0.688,0.069,1.01,0.173
		c-0.183,0.191-0.353,0.395-0.501,0.618h-2.654C17.692,7.706,18.432,7.402,19.252,7.402L19.252,7.402z M16.341,9.083h2.964
		c-0.156,0.4-0.244,0.827-0.287,1.269h-3.115C15.963,9.892,16.115,9.465,16.341,9.083L16.341,9.083z M20.31,10.799
		c0-1.017,0.46-1.92,1.168-2.546c0.713,0.626,1.174,1.53,1.174,2.546l0.034,0.175h-2.381v-0.175H20.31z M15.859,13.916h3.11v1.778
		h-3.11V13.916z M15.859,13.024v-1.16h3.11v1.16H15.859z M14.52,11.864v6.719c0.444-0.069,0.887-0.144,1.34-0.222v-1.776h3.11v1.277
		c0.448-0.07,0.896-0.14,1.34-0.196v-5.802h9.03v6.827c-7.728-1.981-20.943,3.621-26.701,0.393v-7.22H14.52z M14.52,11.864"/>
</g>
</svg>
