<?xml version="1.0" encoding="utf-8"?>
<!-- Generator: Adobe Illustrator 16.0.0, SVG Export Plug-In . SVG Version: 6.00 Build 0)  -->
<!DOCTYPE svg PUBLIC "-//W3C//DTD SVG 1.1//EN" "http://www.w3.org/Graphics/SVG/1.1/DTD/svg11.dtd">
<svg version="1.1" id="Calque_1" xmlns="http://www.w3.org/2000/svg" xmlns:xlink="http://www.w3.org/1999/xlink" x="0px" y="0px"
	 width="31.622px" height="31.622px" viewBox="0 0 31.622 31.622" enable-background="new 0 0 31.622 31.622" xml:space="preserve">
<g>
	<path fill="#FFFFFF" d="M22.511,8.02c0.378,0.238,0.702,0.375,0.936,0.604c1.3,1.271,2.578,2.566,3.863,3.854
		c0.527,0.527,0.528,0.928,0.003,1.453c-1.522,1.525-3.05,3.045-4.561,4.58c-0.134,0.135-0.23,0.373-0.231,0.563
		c-0.014,3.6-0.01,7.199-0.01,10.799c0,0.828-0.256,1.084-1.085,1.084c-6.489,0-12.978,0-19.467,0c-0.891,0-1.121-0.23-1.121-1.119
		c0-8.463,0-16.924,0-25.387c0-0.861,0.236-1.096,1.105-1.096c6.488,0,12.978,0,19.466,0c0.857,0,1.102,0.246,1.102,1.107
		C22.511,5.686,22.511,6.91,22.511,8.02z M20.868,20.365c-0.654,0.658-1.229,1.246-1.813,1.824
		c-0.824,0.818-1.572,1.742-2.501,2.416c-1.518,1.102-3.281,1.732-5.144,1.975c-0.642,0.082-1.194,0.137-1.641,0.68
		c-0.281,0.342-0.801,0.268-1.106-0.049c-0.304-0.314-0.31-0.77-0.001-1.117c0.153-0.174,0.33-0.326,0.484-0.5
		c0.063-0.07,0.136-0.174,0.131-0.258c-0.066-1.408,0.434-2.684,0.931-3.957c0.439-1.125,1.004-2.172,1.938-2.984
		c0.323-0.281,0.6-0.615,0.945-0.975c-1.068,0-2.09-0.004-3.111,0c-1.586,0.006-3.172,0.016-4.758,0.021
		c-0.09,0-0.215,0.02-0.262-0.029c-0.149-0.152-0.375-0.334-0.371-0.5c0.004-0.164,0.236-0.342,0.4-0.473
		c0.072-0.059,0.225-0.023,0.34-0.023c2.785-0.002,5.569,0,8.354-0.008c0.198-0.002,0.458-0.004,0.582-0.119
		c0.561-0.521,1.083-1.084,1.683-1.697c-0.229,0-0.367,0-0.504,0c-3.354,0-6.708,0-10.061,0c-0.573,0-0.831-0.164-0.824-0.523
		c0.006-0.352,0.236-0.494,0.803-0.494c3.754,0,7.508,0.004,11.261-0.008c0.185,0,0.418-0.07,0.545-0.193
		c1.18-1.154,2.346-2.324,3.501-3.502c0.118-0.121,0.2-0.332,0.202-0.502c0.017-1.34,0.01-2.682,0.009-4.023
		c0-0.111-0.015-0.223-0.022-0.334c-6.144,0-12.251,0-18.373,0c0,8.107,0,16.188,0,24.279c6.138,0,12.254,0,18.383,0
		C20.868,26.334,20.868,23.41,20.868,20.365z M16.282,21.395c-0.066-0.113-0.161-0.328-0.303-0.504
		c-0.168-0.209-0.411-0.363-0.562-0.582c-0.469-0.68-1.082-0.734-1.829-0.566c-0.413,0.092-0.77,0.199-0.997,0.559
		c-0.791,1.238-1.29,2.596-1.609,4.023c-0.057,0.252,0.364,0.648,0.615,0.594c1.379-0.303,2.687-0.797,3.892-1.535
		c0.229-0.141,0.48-0.363,0.564-0.604C16.191,22.387,16.199,21.949,16.282,21.395z"/>
	<path fill="#FFFFFF" d="M30.854,9.252c-0.024,0.625-0.188,1.219-0.608,1.705c-0.337,0.389-0.702,0.756-1.08,1.105
		c-0.337,0.314-0.784,0.307-1.115-0.021c-1.402-1.387-2.798-2.781-4.186-4.184c-0.354-0.357-0.342-0.807,0.006-1.174
		c0.293-0.309,0.593-0.611,0.904-0.9c1.077-0.998,2.723-0.984,3.783,0.037c0.511,0.49,1.006,0.998,1.504,1.504
		C30.587,7.855,30.823,8.506,30.854,9.252z"/>
	<path fill="#FFFFFF" d="M11.606,8.883c-2.076,0-4.153,0-6.229,0c-0.117,0-0.233,0.006-0.349-0.006
		C4.743,8.85,4.579,8.684,4.563,8.402C4.548,8.115,4.717,7.945,4.984,7.881c0.11-0.025,0.23-0.012,0.347-0.012
		c4.192,0,8.385,0,12.577,0c0.128,0.002,0.263-0.01,0.384,0.025c0.253,0.07,0.387,0.252,0.366,0.52
		c-0.02,0.266-0.167,0.428-0.435,0.461c-0.114,0.016-0.231,0.008-0.348,0.008C15.786,8.883,13.696,8.883,11.606,8.883z"/>
	<path fill="#FFFFFF" d="M11.603,11.736c-2.09,0-4.18,0-6.27,0c-0.116,0-0.235,0.014-0.347-0.01
		c-0.273-0.059-0.475-0.248-0.408-0.514c0.045-0.184,0.251-0.342,0.417-0.473c0.073-0.057,0.225-0.016,0.341-0.016
		c4.192-0.002,8.385-0.002,12.577,0c0.104,0,0.208-0.008,0.309,0.008c0.283,0.041,0.437,0.213,0.438,0.498
		c0.001,0.289-0.16,0.455-0.44,0.498c-0.113,0.018-0.231,0.008-0.348,0.008C15.782,11.736,13.692,11.736,11.603,11.736z"/>
	<path fill="#FFFFFF" d="M7.443,20.279c-0.748,0-1.494,0.004-2.241-0.002c-0.417-0.002-0.641-0.184-0.644-0.5
		c-0.002-0.314,0.234-0.516,0.635-0.518c1.507-0.004,3.014-0.004,4.521,0c0.402,0.002,0.638,0.197,0.642,0.51
		c0.004,0.32-0.217,0.506-0.633,0.508C8.963,20.283,8.203,20.279,7.443,20.279z"/>
</g>
</svg>
